<svg xmlns="http://www.w3.org/2000/svg" width="1200" height="300" viewBox="0 0 1200 300" role="img" aria-label="SanamRai001 live GitHub signal">
<defs>
<linearGradient id="b" x1="0" y1="0" x2="1" y2="1"><stop stop-color="#080B10"/><stop offset=".55" stop-color="#0A1118"/><stop offset="1" stop-color="#08121B"/></linearGradient>
<radialGradient id="gl" cx=".8" cy=".45" r=".5"><stop stop-color="#3882F6" stop-opacity=".14"/><stop offset="1" stop-color="#3882F6" stop-opacity="0"/></radialGradient>
<pattern id="g" width="30" height="30" patternUnits="userSpaceOnUse"><path d="M30 0H0V30" fill="none" stroke="#9AC5ED" stroke-opacity=".04"/></pattern>
<style>@keyframes pulse{0%,100%{opacity:.28}50%{opacity:1}}.pulse{animation:pulse 2.8s ease-in-out infinite}@media(prefers-reduced-motion:reduce){.pulse{animation:none;opacity:1}}</style>
</defs>
<rect width="1200" height="300" rx="22" fill="url(#b)"/><rect width="1200" height="300" rx="22" fill="url(#g)"/><rect width="1200" height="300" rx="22" fill="url(#gl)"/><rect x="1" y="1" width="1198" height="298" rx="21" fill="none" stroke="#659DD0" stroke-opacity=".16"/>

<text x="34" y="38" font-family="Consolas,monospace" font-size="11" letter-spacing="2" fill="#67B4FF">LIVE SIGNAL / 008</text>
<circle cx="173" cy="34" r="3" fill="#22D3EE" class="pulse"/>
<text x="34" y="76" font-family="Segoe UI,Arial,sans-serif" font-size="23" font-weight="650" fill="#EEF4FA">Public GitHub footprint</text>
<text x="34" y="103" font-family="Segoe UI,Arial,sans-serif" font-size="12" fill="#71869A">Automatically refreshed from GitHub · own public repositories only for star totals</text>

<g font-family="Consolas,monospace">
  <rect x="34" y="132" width="170" height="92" rx="14" fill="#0B141D" stroke="#28455E"/>
  <text x="52" y="158" font-size="9" letter-spacing="1.4" fill="#61778B">STARS EARNED</text>
  <text x="52" y="199" font-size="30" fill="#DCE9F3">0</text>

  <rect x="220" y="132" width="170" height="92" rx="14" fill="#0B141D" stroke="#28455E"/>
  <text x="238" y="158" font-size="9" letter-spacing="1.4" fill="#61778B">FOLLOWERS</text>
  <text x="238" y="199" font-size="30" fill="#DCE9F3">4</text>

  <rect x="406" y="132" width="170" height="92" rx="14" fill="#0B141D" stroke="#28455E"/>
  <text x="424" y="158" font-size="9" letter-spacing="1.4" fill="#61778B">PUBLIC REPOS</text>
  <text x="424" y="199" font-size="30" fill="#DCE9F3">29</text>

  <rect x="606" y="132" width="560" height="92" rx="14" fill="#0A151F" stroke="#35658C"/>
  <text x="628" y="158" font-size="9" letter-spacing="1.4" fill="#67B4FF">LATEST SHIP</text>
  <text x="628" y="190" font-size="19" fill="#E3EDF5">Portofolio</text>
  <text x="628" y="211" font-size="9" fill="#637A8E">MOST RECENTLY PUSHED PUBLIC PROJECT · 2026-09-25</text>
</g>

<line x1="34" y1="252" x2="1166" y2="252" stroke="#213547"/>
<text x="34" y="276" font-family="Consolas,monospace" font-size="9" fill="#51687B">GITHUB REST API / UPDATED 2026-09-25</text>
<text x="1166" y="276" text-anchor="end" font-family="Consolas,monospace" font-size="9" fill="#51687B">SR / SYSTEM 001</text>
</svg>